<?xml version="1.0" encoding="utf-8"?>
<!-- Generator: Adobe Illustrator 24.0.0, SVG Export Plug-In . SVG Version: 6.00 Build 0)  -->
<svg version="1.1" id="Layer_1" xmlns="http://www.w3.org/2000/svg" xmlns:xlink="http://www.w3.org/1999/xlink" x="0px" y="0px"
	 viewBox="0 0 512 512" style="enable-background:new 0 0 512 512;" xml:space="preserve">
<style type="text/css">
	.st0{clip-path:url(#SVGID_2_);}
	.st1{clip-path:url(#SVGID_4_);fill:none;stroke:#BE1E2D;stroke-width:19.5218;stroke-miterlimit:10;}
	.st2{clip-path:url(#SVGID_4_);fill:#231F20;}
</style>
<g id="Artwork_71_1_">
	<g>
		<defs>
			<rect id="SVGID_1_" x="3.07" y="3.82" width="505.4" height="505.4"/>
		</defs>
		<clipPath id="SVGID_2_">
			<use xlink:href="#SVGID_1_"  style="overflow:visible;"/>
		</clipPath>
		<g class="st0">
			<defs>
				<rect id="SVGID_3_" x="3.07" y="3.82" width="505.4" height="505.4"/>
			</defs>
			<clipPath id="SVGID_4_">
				<use xlink:href="#SVGID_3_"  style="overflow:visible;"/>
			</clipPath>
			<path class="st1" d="M421.02,499.46H90.53c-42.91,0-77.69-34.79-77.69-77.69V91.28c0-42.91,34.79-77.69,77.69-77.69h330.49
				c42.91,0,77.69,34.79,77.69,77.69v330.49C498.71,464.68,463.93,499.46,421.02,499.46z"/>
			<path class="st2" d="M170.92,273.68c24.65,0,43.29,5.73,55.91,17.19c12.61,11.46,18.92,28.36,18.92,50.71
				c0,20.42-6.26,36.69-18.78,48.83c-12.52,12.14-29.57,18.2-51.14,18.2c-9.44,0-17.82-1.16-25.14-3.47v50.56
				c0,3.66-0.68,6.26-2.02,7.8c-1.35,1.54-3.85,2.31-7.51,2.31H82.8c-3.66,0-6.17-0.77-7.51-2.31c-1.35-1.54-2.02-4.14-2.02-7.8
				V306.62c0-4.81-0.39-8.33-1.16-10.54c-0.77-2.21-2.12-4.23-4.04-6.07c-1.93-1.83-5.2-4.28-9.82-7.37
				c-0.97-0.58-1.44-1.45-1.44-2.6v-3.47c0-1.92,1.15-2.89,3.47-2.89H170.92z M150.7,388.96c1.16,1.54,2.98,2.31,5.49,2.31
				c1.73,0,3.08-0.67,4.04-2.02c0.96-1.35,1.45-3.08,1.45-5.2v-89.28c0-2.12-0.48-3.85-1.45-5.2c-0.97-1.35-2.31-2.02-4.04-2.02
				c-2.51,0-4.33,0.77-5.49,2.31V388.96z"/>
			<path class="st2" d="M340.55,273.68c3.47,0,5.92,0.77,7.37,2.31c1.44,1.54,2.17,4.14,2.17,7.8v165.26
				c1.16,1.54,2.89,2.31,5.2,2.31c3.27,0,4.91-2.12,4.91-6.36v-55.18c0-3.66,0.77-6.26,2.31-7.8c1.54-1.54,4.14-2.31,7.8-2.31h35.54
				c10.78,0,18.78,2.94,23.98,8.81c5.2,5.88,7.8,14.88,7.8,27.01v40.16c0,3.66-0.72,6.26-2.17,7.8c-1.45,1.54-3.9,2.31-7.37,2.31
				H282.18c-3.47,0-5.92-0.77-7.37-2.31c-1.44-1.54-2.17-4.14-2.17-7.8V306.62c0-4.81-0.39-8.33-1.16-10.55
				c-0.77-2.21-2.12-4.23-4.04-6.07c-1.93-1.83-5.2-4.28-9.82-7.37c-0.97-0.58-1.44-1.45-1.44-2.6v-3.47c0-1.92,1.15-2.89,3.47-2.89
				H340.55z"/>
			<path class="st2" d="M147.08,187.97h-10.69l8.38,32.36c1.16,4.43,1.73,7.51,1.73,9.25c0,4.82-2.99,7.22-8.96,7.22H62.14
				c-3.85,0-6.79-0.91-8.81-2.74c-2.02-1.83-3.03-4.38-3.03-7.66c0-4.43,4.43-17.91,13.29-40.45
				c8.86-22.54,23.88-58.46,45.07-107.77c1.16-2.7,1.73-5.1,1.73-7.22c0-3.27-0.82-6.07-2.46-8.38c-1.64-2.31-4.67-4.91-9.1-7.8
				c-1.93-1.16-2.89-2.41-2.89-3.76v-3.47c0-1.92,1.16-2.89,3.47-2.89h67.03c6.36,0,11.51,1.25,15.46,3.76
				c3.94,2.51,6.98,6.55,9.1,12.13l55.76,146.77c3.66,9.44,5.49,16.18,5.49,20.22c0,6.17-3.18,9.24-9.54,9.24H170.2
				c-4.04,0-6.98-0.87-8.81-2.6c-1.83-1.73-3.42-5.2-4.77-10.4L147.08,187.97z M132.93,174.39h10.69l-20.22-77.72
				c-0.97-0.96-2.22-1.44-3.76-1.44c-1.54,0-2.79,0.43-3.76,1.3c-0.97,0.87-1.44,1.98-1.44,3.32c0,0.77,0.09,1.64,0.29,2.6
				c0.19,0.97,0.48,2.12,0.87,3.47L132.93,174.39z"/>
		</g>
	</g>
</g>
</svg>
